<?xml version="1.0" standalone="no"?>
<!DOCTYPE svg PUBLIC "-//W3C//DTD SVG 20010904//EN"
 "http://www.w3.org/TR/2001/REC-SVG-20010904/DTD/svg10.dtd">
<svg version="1.0" xmlns="http://www.w3.org/2000/svg"
 width="100.000000pt" height="100.000000pt" viewBox="0 0 100.000000 100.000000"
 preserveAspectRatio="xMidYMid meet">

<g transform="translate(0.000000,100.000000) scale(0.100000,-0.100000)"
fill="#000000" stroke="none">
<path d="M0 500 l0 -500 500 0 500 0 0 500 0 500 -500 0 -500 0 0 -500z m704
464 c14 -37 -3 -159 -20 -142 -2 3 0 17 5 32 10 24 7 28 -15 25 -4 0 -11 5
-15 13 -7 10 -9 10 -9 -2 -1 -8 -5 -5 -11 8 -6 15 -5 30 1 43 6 10 7 19 3 20
-11 1 29 17 43 18 7 1 15 -6 18 -15z m-304 -51 c41 -47 59 -89 34 -79 -8 3
-14 1 -14 -3 0 -14 -33 -23 -40 -10 -4 6 -5 30 -3 52 3 28 -1 49 -10 62 -14
18 -15 16 -10 -28 5 -41 3 -47 -11 -41 -12 5 -16 0 -17 -22 -1 -26 -2 -26 -8
7 -4 20 -5 52 -3 72 6 49 33 45 82 -10z m206 16 c-17 -19 -26 -43 -26 -64 0
-18 -9 -43 -20 -56 -19 -23 -21 -23 -34 -6 -21 27 -8 56 48 109 60 55 68 60
32 17z m-106 -109 c0 -5 -17 -10 -37 -9 -31 0 -34 2 -18 9 28 12 55 12 55 0z
m11 -65 c34 -26 47 -46 48 -75 0 -12 -2 -11 -10 3 -8 14 -18 16 -52 11 -23 -4
-49 -13 -58 -21 -14 -12 -18 -11 -28 1 -17 20 -37 10 -51 -25 -7 -16 -14 -28
-16 -26 -4 4 20 75 29 83 4 4 7 15 7 25 0 23 37 49 70 49 14 0 42 -11 61 -25z
m139 -65 c5 -19 10 -48 10 -63 0 -20 4 -26 13 -21 6 4 9 4 5 -1 -4 -4 0 -14
10 -22 16 -14 16 -14 -1 -9 -17 5 -18 2 -12 -31 13 -80 14 -104 4 -97 -6 3 -7
-4 -4 -19 4 -16 1 -30 -10 -41 -22 -22 -7 -21 18 2 11 9 17 12 14 5 -4 -6 0
-19 9 -28 9 -9 14 -19 10 -22 -3 -4 2 -15 11 -26 14 -16 15 -21 4 -25 -9 -3
-10 -6 -2 -12 20 -12 -20 -48 -61 -56 -21 -3 -38 -2 -39 2 -4 48 -27 94 -43
88 -11 -4 -13 0 -9 16 6 21 6 21 37 -7 l31 -28 -25 29 c-18 21 -21 30 -12 33
7 3 24 16 37 29 27 27 25 41 -12 92 -14 18 -23 36 -20 38 3 3 15 -11 27 -31
12 -20 25 -34 27 -31 3 3 -9 24 -27 46 -31 39 -32 42 -14 55 11 8 22 15 27 15
4 0 7 6 7 14 0 9 -11 3 -31 -15 -17 -16 -28 -33 -25 -38 3 -5 0 -11 -8 -14
-22 -9 -8 26 25 62 26 28 28 37 23 74 -4 23 -13 54 -20 69 -18 35 -17 48 1 23
9 -10 20 -35 25 -55z m77 8 c-3 -8 -6 -5 -6 6 -1 11 2 17 5 13 3 -3 4 -12 1
-19z m-181 -49 c9 -15 -5 -26 -46 -34 -31 -7 -33 -6 -21 9 7 9 10 16 5 17 -12
1 27 17 43 18 6 1 15 -4 19 -10z m-156 -19 c0 -5 -4 -10 -10 -10 -5 0 -10 5
-10 10 0 6 5 10 10 10 6 0 10 -4 10 -10z m54 -16 c4 -9 21 -14 50 -14 35 0 48
5 60 22 16 23 30 21 21 -4 -7 -17 -57 -48 -79 -48 -9 0 -27 -7 -40 -15 -13 -9
-31 -13 -40 -9 -18 7 -21 20 -6 29 18 11 1 23 -23 18 l-22 -6 24 26 c24 26 45
27 55 1z m-74 -112 c0 -7 -6 -15 -14 -18 -8 -3 -13 -11 -10 -18 7 -18 -30 -61
-44 -52 -17 10 -15 32 5 51 16 16 15 17 -3 13 -10 -2 -25 -16 -32 -31 -18 -37
-34 -34 -20 4 6 16 8 33 4 36 -3 3 4 11 17 17 17 9 24 25 31 69 l9 58 29 -58
c15 -32 28 -63 28 -71z m20 47 c0 -6 -4 -7 -10 -4 -5 3 -10 11 -10 16 0 6 5 7
10 4 6 -3 10 -11 10 -16z m-120 -19 c0 -11 -4 -20 -9 -20 -5 0 -7 9 -4 20 3
11 7 20 9 20 2 0 4 -9 4 -20z m200 -29 c0 -5 -8 -12 -17 -15 -12 -5 -14 -9 -6
-14 7 -5 9 -30 6 -75 -5 -55 -9 -67 -23 -67 -18 0 -30 27 -30 68 0 38 24 101
40 106 26 7 30 6 30 -3z m50 -36 c-10 -12 -10 -15 4 -16 33 -3 37 -4 46 -19
15 -24 12 -29 -26 -36 -42 -8 -54 4 -52 53 1 21 7 33 17 36 23 5 26 0 11 -18z
m85 -45 c3 -5 1 -10 -4 -10 -6 0 -11 5 -11 10 0 6 2 10 4 10 3 0 8 -4 11 -10z
m-294 -56 c38 -16 40 -19 35 -48 -17 -94 -17 -95 15 -128 32 -34 82 -48 71
-20 -3 10 -1 13 6 8 7 -4 12 -1 12 9 0 12 -5 15 -17 10 -14 -5 -15 -3 -6 6 16
16 123 -33 123 -57 0 -11 5 -14 16 -10 9 3 19 6 24 6 4 0 10 9 13 19 3 12 17
22 38 26 19 4 44 13 56 21 18 12 22 11 28 -4 3 -10 0 -21 -9 -28 -22 -15 -20
-29 7 -56 18 -18 21 -27 12 -34 -22 -21 -40 -21 -68 2 -23 19 -32 22 -54 13
-20 -7 -28 -6 -39 8 -12 17 -13 16 -7 -4 5 -21 2 -23 -33 -24 -72 -3 -129 3
-136 14 -3 6 4 19 15 30 12 11 5 7 -16 -7 -31 -22 -38 -25 -43 -12 -3 8 -2 21
2 28 5 10 4 11 -7 0 -7 -6 -23 -12 -35 -12 -13 0 -30 -10 -38 -21 -10 -15 -20
-19 -33 -15 -16 7 -15 10 11 28 67 50 76 180 18 251 -19 21 -13 21 39 1z m290
-76 c8 -73 7 -87 -9 -100 -15 -11 -16 -11 -5 3 9 11 11 29 4 62 -5 27 -5 47 0
47 5 0 10 -6 10 -12z m-271 -188 c0 -12 -28 -25 -36 -17 -9 9 6 27 22 27 8 0
14 -5 14 -10z m326 -22 c5 -8 2 -9 -9 -5 -11 4 -17 1 -17 -8 0 -9 -6 -12 -15
-9 -28 11 -16 26 27 33 4 0 10 -4 14 -11z m61 -34 c-3 -3 -12 -4 -19 -1 -8 3
-5 6 6 6 11 1 17 -2 13 -5z"/>
<path d="M500 710 c0 -5 7 -7 15 -4 8 4 15 8 15 10 0 2 -7 4 -15 4 -8 0 -15
-4 -15 -10z"/>
<path d="M688 253 c6 -2 18 -2 25 0 6 3 1 5 -13 5 -14 0 -19 -2 -12 -5z"/>
</g>
</svg>
